<svg width="96" height="87" viewBox="0 0 96 87" fill="none" xmlns="http://www.w3.org/2000/svg">
<path d="M0 86.6926V77.0926C0 77.0926 24 67.4926 48 67.4926C72 67.4926 96 77.0926 96 77.0926V86.6926H0ZM44.64 24.7726C38.88 6.05264 9.6 10.3726 9.6 10.3726C9.6 10.3726 10.56 47.8126 37.92 42.0526C36 28.1326 28.8 24.2926 28.8 24.2926C42.24 24.2926 43.2 40.6126 43.2 40.6126V62.6926C44.64 62.6926 46.56 62.6926 48 62.6926C49.44 62.6926 51.36 62.6926 52.8 62.6926V42.5326C52.8 42.5326 52.8 23.8126 67.2 19.0126C67.2 19.0126 57.6 33.4126 57.6 43.0126C91.2 46.3726 91.2 0.292638 91.2 0.292638C91.2 0.292638 48.48 -4.50736 44.64 24.7726Z" fill="white"/>
</svg>
