<svg width="138" height="124" viewBox="0 0 138 124" fill="none" xmlns="http://www.w3.org/2000/svg">
<path d="M0 123.847V110.132C0 110.132 34.2857 96.418 68.5714 96.418C102.857 96.418 137.143 110.132 137.143 110.132V123.847H0ZM63.7714 35.3895C55.5429 8.64663 13.7143 14.8181 13.7143 14.8181C13.7143 14.8181 15.0857 68.3038 54.1714 60.0752C51.4286 40.1895 41.1429 34.7038 41.1429 34.7038C60.3429 34.7038 61.7143 58.018 61.7143 58.018V89.5609C63.7714 89.5609 66.5143 89.5609 68.5714 89.5609C70.6286 89.5609 73.3714 89.5609 75.4286 89.5609V60.7609C75.4286 60.7609 75.4286 34.0181 96 27.1609C96 27.1609 82.2857 47.7323 82.2857 61.4466C130.286 66.2466 130.286 0.418054 130.286 0.418054C130.286 0.418054 69.2571 -6.43908 63.7714 35.3895Z" fill="black"/>
</svg>
