<svg width="118" height="137" viewBox="0 0 118 137" fill="none" xmlns="http://www.w3.org/2000/svg">
<path d="M51.9328 0H65.7815V13.8487H69.2437C71.9984 13.8487 74.6402 14.943 76.5881 16.8909C78.536 18.8387 79.6303 21.4806 79.6303 24.2353V48.4706L76.5835 51.5173L87.9395 71.1825C95.6256 63.635 100.403 53.1792 100.403 41.5462H114.252C114.252 58.3032 106.843 73.3291 95.0716 83.5079L116.814 121.176L117.714 136.549L104.766 128.101L83.5079 91.194C76.1681 94.8639 67.7203 96.9412 58.8571 96.9412C49.994 96.9412 41.5462 94.8639 34.2064 91.194L12.9486 128.101L0 136.549L0.900169 121.176L41.1308 51.5173L38.084 48.4706V24.2353C38.084 21.4806 39.1783 18.8387 41.1262 16.8909C43.074 14.943 45.7159 13.8487 48.4706 13.8487H51.9328V0ZM41.1308 79.1455C46.5318 81.7076 52.556 83.0924 58.8571 83.0924C65.1583 83.0924 71.1825 81.7076 76.5835 79.1455L66.474 61.6269H66.4047C62.1116 65.7815 55.6027 65.7815 51.3096 61.6269H51.2403L41.1308 79.1455ZM58.8571 27.6975C57.0207 27.6975 55.2594 28.427 53.9609 29.7256C52.6623 31.0242 51.9328 32.7854 51.9328 34.6218C51.9328 36.4583 52.6623 38.2195 53.9609 39.5181C55.2594 40.8167 57.0207 41.5462 58.8571 41.5462C60.6936 41.5462 62.4548 40.8167 63.7534 39.5181C65.052 38.2195 65.7815 36.4583 65.7815 34.6218C65.7815 32.7854 65.052 31.0242 63.7534 29.7256C62.4548 28.427 60.6936 27.6975 58.8571 27.6975Z" fill="black"/>
</svg>
