<svg width="83" height="96" viewBox="0 0 83 96" fill="none" xmlns="http://www.w3.org/2000/svg">
<path d="M36.3529 0H46.0471V9.69412H48.4706C50.3989 9.69412 52.2482 10.4601 53.6117 11.8236C54.9752 13.1871 55.7412 15.0364 55.7412 16.9647V33.9294L53.6085 36.0621L61.5577 49.8278C66.9379 44.5445 70.2824 37.2254 70.2824 29.0824H79.9765C79.9765 40.8122 74.7901 51.3304 66.5501 58.4555L81.7699 84.8235L82.4 95.584L73.336 89.6706L58.4555 63.8358C53.3176 66.4047 47.4042 67.8588 41.2 67.8588C34.9958 67.8588 29.0824 66.4047 23.9445 63.8358L9.064 89.6706L0 95.584L0.630118 84.8235L28.7915 36.0621L26.6588 33.9294V16.9647C26.6588 15.0364 27.4248 13.1871 28.7883 11.8236C30.1518 10.4601 32.0011 9.69412 33.9294 9.69412H36.3529V0ZM28.7915 55.4019C32.5722 57.1953 36.7892 58.1647 41.2 58.1647C45.6108 58.1647 49.8278 57.1953 53.6085 55.4019L46.5318 43.1388H46.4833C43.4781 46.0471 38.9219 46.0471 35.9167 43.1388H35.8682L28.7915 55.4019ZM41.2 19.3882C39.9145 19.3882 38.6816 19.8989 37.7726 20.8079C36.8636 21.7169 36.3529 22.9498 36.3529 24.2353C36.3529 25.5208 36.8636 26.7537 37.7726 27.6627C38.6816 28.5717 39.9145 29.0824 41.2 29.0824C42.4855 29.0824 43.7184 28.5717 44.6274 27.6627C45.5364 26.7537 46.0471 25.5208 46.0471 24.2353C46.0471 22.9498 45.5364 21.7169 44.6274 20.8079C43.7184 19.8989 42.4855 19.3882 41.2 19.3882Z" fill="white"/>
</svg>
