<svg width="138" height="138" viewBox="0 0 138 138" fill="none" xmlns="http://www.w3.org/2000/svg">
<path d="M137.143 0.0171905C137.143 0.0171905 84.7543 -2.51995 43.4743 54.0515C11.7943 97.4572 0 137.16 0 137.16L13.3029 130.303C23.1771 113.16 28.32 106.097 37.9886 96.0172C55.3371 101.091 73.44 100.474 89.1429 82.3029C75.4286 78.4629 64.4571 79.3543 48.2743 81C66.4457 68.5886 78.8571 65.8458 96 68.5886L102.857 54.8743C90.5143 52.5429 82.2857 52.3372 70.08 55.1486C83.5886 45.6172 92.9829 40.2686 109.714 41.16L118.011 27.9258C107.314 27.1715 100.869 28.3372 88.5943 31.3543C99.6343 21.3429 109.714 16.8172 124.389 15.9258C124.389 15.9258 131.589 2.96576 137.143 0.0171905Z" fill="black"/>
</svg>
