<svg width="96" height="97" viewBox="0 0 96 97" fill="none" xmlns="http://www.w3.org/2000/svg">
<path d="M96 0.0120334C96 0.0120334 59.328 -1.76397 30.432 37.836C8.256 68.22 0 96.012 0 96.012L9.312 91.212C16.224 79.212 19.824 74.268 26.592 67.212C38.736 70.764 51.408 70.332 62.4 57.612C52.8 54.924 45.12 55.548 33.792 56.7C46.512 48.012 55.2 46.092 67.2 48.012L72 38.412C63.36 36.78 57.6 36.636 49.056 38.604C58.512 31.932 65.088 28.188 76.8 28.812L82.608 19.548C75.12 19.02 70.608 19.836 62.016 21.948C69.744 14.94 76.8 11.772 87.072 11.148C87.072 11.148 92.112 2.07603 96 0.0120334Z" fill="white"/>
</svg>
