<svg width="138" height="138" viewBox="0 0 138 138" fill="none" xmlns="http://www.w3.org/2000/svg">
<path d="M106.667 106.667H30.4762V30.4762H106.667M137.143 60.9524V45.7143H121.905V30.4762C121.905 22.019 115.048 15.2381 106.667 15.2381H91.4286V0H76.1905V15.2381H60.9524V0H45.7143V15.2381H30.4762C22.019 15.2381 15.2381 22.019 15.2381 30.4762V45.7143H0V60.9524H15.2381V76.1905H0V91.4286H15.2381V106.667C15.2381 110.708 16.8435 114.584 19.7012 117.442C22.5589 120.299 26.4348 121.905 30.4762 121.905H45.7143V137.143H60.9524V121.905H76.1905V137.143H91.4286V121.905H106.667C110.708 121.905 114.584 120.299 117.442 117.442C120.299 114.584 121.905 110.708 121.905 106.667V91.4286H137.143V76.1905H121.905V60.9524M76.1905 76.1905H60.9524V60.9524H76.1905M91.4286 45.7143H45.7143V91.4286H91.4286V45.7143Z" fill="black"/>
</svg>
