<svg width="138" height="110" viewBox="0 0 138 110" fill="none" xmlns="http://www.w3.org/2000/svg">
<path d="M137.143 41.1429V13.7143C137.143 6.10286 130.971 0 123.429 0H13.7143C6.17143 0 0 6.10286 0 13.7143V41.1429C7.61143 41.1429 13.7143 47.3143 13.7143 54.8571C13.7143 62.4 7.61143 68.5714 0 68.5714V96C0 103.543 6.17143 109.714 13.7143 109.714H123.429C130.971 109.714 137.143 103.543 137.143 96V68.5714C129.6 68.5714 123.429 62.4 123.429 54.8571C123.429 47.3143 129.6 41.1429 137.143 41.1429ZM123.429 31.1314C115.269 35.8629 109.714 44.7771 109.714 54.8571C109.714 64.9371 115.269 73.8514 123.429 78.5829V96H13.7143V78.5829C21.8743 73.8514 27.4286 64.9371 27.4286 54.8571C27.4286 44.5714 21.9429 35.8629 13.7143 31.1314V13.7143H123.429V31.1314ZM61.7143 75.4286H75.4286V89.1429H61.7143M61.7143 48H75.4286V61.7143H61.7143M61.7143 20.5714H75.4286V34.2857H61.7143V20.5714Z" fill="black"/>
</svg>
