<svg width="96" height="77" viewBox="0 0 96 77" fill="none" xmlns="http://www.w3.org/2000/svg">
<path d="M96 28.8V9.6C96 4.272 91.68 0 86.4 0H9.6C4.32 0 0 4.272 0 9.6V28.8C5.328 28.8 9.6 33.12 9.6 38.4C9.6 43.68 5.328 48 0 48V67.2C0 72.48 4.32 76.8 9.6 76.8H86.4C91.68 76.8 96 72.48 96 67.2V48C90.72 48 86.4 43.68 86.4 38.4C86.4 33.12 90.72 28.8 96 28.8ZM86.4 21.792C80.688 25.104 76.8 31.344 76.8 38.4C76.8 45.456 80.688 51.696 86.4 55.008V67.2H9.6V55.008C15.312 51.696 19.2 45.456 19.2 38.4C19.2 31.2 15.36 25.104 9.6 21.792V9.6H86.4V21.792ZM43.2 52.8H52.8V62.4H43.2M43.2 33.6H52.8V43.2H43.2M43.2 14.4H52.8V24H43.2V14.4Z" fill="white"/>
</svg>
