<svg width="77" height="138" viewBox="0 0 77 138" fill="none" xmlns="http://www.w3.org/2000/svg">
<path d="M0 91.8857H15.3143C15.3143 100.155 25.8046 107.2 38.2857 107.2C50.7669 107.2 61.2571 100.155 61.2571 91.8857C61.2571 83.4629 53.2937 80.4 36.448 76.3417C20.2149 72.2834 0 67.2297 0 45.9429C0 32.2366 11.256 20.5977 26.8 16.6926V0H49.7714V16.6926C65.3154 20.5977 76.5714 32.2366 76.5714 45.9429H61.2571C61.2571 37.6731 50.7669 30.6286 38.2857 30.6286C25.8046 30.6286 15.3143 37.6731 15.3143 45.9429C15.3143 54.3657 23.2777 57.4286 40.1234 61.4869C56.3566 65.5451 76.5714 70.5989 76.5714 91.8857C76.5714 105.592 65.3154 117.231 49.7714 121.136V137.829H26.8V121.136C11.256 117.231 0 105.592 0 91.8857Z" fill="black"/>
</svg>
