<svg width="54" height="97" viewBox="0 0 54 97" fill="none" xmlns="http://www.w3.org/2000/svg">
<path d="M0 64.32H10.72C10.72 70.1088 18.0632 75.04 26.8 75.04C35.5368 75.04 42.88 70.1088 42.88 64.32C42.88 58.424 37.3056 56.28 25.5136 53.4392C14.1504 50.5984 0 47.0608 0 32.16C0 22.5656 7.8792 14.4184 18.76 11.6848V0H34.84V11.6848C45.7208 14.4184 53.6 22.5656 53.6 32.16H42.88C42.88 26.3712 35.5368 21.44 26.8 21.44C18.0632 21.44 10.72 26.3712 10.72 32.16C10.72 38.056 16.2944 40.2 28.0864 43.0408C39.4496 45.8816 53.6 49.4192 53.6 64.32C53.6 73.9144 45.7208 82.0616 34.84 84.7952V96.48H18.76V84.7952C7.8792 82.0616 0 73.9144 0 64.32Z" fill="white"/>
</svg>
