<svg width="138" height="124" viewBox="0 0 138 124" fill="none" xmlns="http://www.w3.org/2000/svg">
<path d="M54.8571 89.1429V82.2857H6.85714V109.714C6.85714 117.326 12.96 123.429 20.5714 123.429H116.571C124.183 123.429 130.286 117.326 130.286 109.714V82.2857H82.2857V89.1429H54.8571ZM123.429 27.4286H96V13.7143L82.2857 0H54.8571L41.1429 13.7143V27.4286H13.7143C6.17143 27.4286 0 33.6 0 41.1429V61.7143C0 69.3257 6.10286 75.4286 13.7143 75.4286H54.8571V61.7143H82.2857V75.4286H123.429C130.971 75.4286 137.143 69.2571 137.143 61.7143V41.1429C137.143 33.6 130.971 27.4286 123.429 27.4286ZM82.2857 27.4286H54.8571V13.7143H82.2857V27.4286Z" fill="black"/>
</svg>
