<svg width="124" height="137" viewBox="0 0 124 137" fill="none" xmlns="http://www.w3.org/2000/svg">
<path d="M40.8686 28.8686L51.7714 47.52C34.08 49.3029 20.5714 64.0457 20.5714 81.8057C20.5714 90.8988 24.1837 99.6195 30.6135 106.049C37.0433 112.479 45.764 116.091 54.8571 116.091C68.9143 116.091 80.9829 107.657 86.2629 95.52H68.5714V81.8057H123.429V95.52H108C105.189 106.286 99.2229 115.817 91.1314 122.949H109.714V136.663H0V122.949H18.5829C7.2 112.869 0 98.1943 0 81.8057C0 56.9143 16.8686 35.1771 40.8686 28.8686ZM63.36 0L68.5714 8.91428L74.4686 5.48571L98.4686 47.04L74.6743 60.7543L50.6743 19.2L56.64 15.7714L51.4286 6.85714L63.36 0Z" fill="black"/>
</svg>
