<svg width="87" height="96" viewBox="0 0 87 96" fill="none" xmlns="http://www.w3.org/2000/svg">
<path d="M28.608 20.208L36.24 33.264C23.856 34.512 14.4 44.832 14.4 57.264C14.4 63.6292 16.9286 69.7337 21.4294 74.2346C25.9303 78.7354 32.0348 81.264 38.4 81.264C48.24 81.264 56.688 75.36 60.384 66.864H48V57.264H86.4V66.864H75.6C73.632 74.4 69.456 81.072 63.792 86.064H76.8V95.664H0V86.064H13.008C5.04 79.008 0 68.736 0 57.264C0 39.84 11.808 24.624 28.608 20.208ZM44.352 0L48 6.24L52.128 3.84L68.928 32.928L52.272 42.528L35.472 13.44L39.648 11.04L36 4.8L44.352 0Z" fill="white"/>
</svg>
