<svg width="138" height="138" viewBox="0 0 138 138" fill="none" xmlns="http://www.w3.org/2000/svg">
<path d="M68.5714 60.5483C70.6993 60.5483 72.74 61.3936 74.2446 62.8982C75.7493 64.4029 76.5945 66.4436 76.5945 68.5714C76.5945 70.6993 75.7493 72.74 74.2446 74.2446C72.74 75.7493 70.6993 76.5945 68.5714 76.5945C66.4436 76.5945 64.4029 75.7493 62.8982 74.2446C61.3936 72.74 60.5483 70.6993 60.5483 68.5714C60.5483 66.4436 61.3936 64.4029 62.8982 62.8982C64.4029 61.3936 66.4436 60.5483 68.5714 60.5483ZM6.15158 6.15158C17.6246 -5.32147 42.4963 -0.186678 68.5714 16.9026C94.6466 -0.186678 119.518 -5.32147 130.991 6.15158C142.464 17.6246 137.33 42.4963 120.24 68.5714C137.33 94.6466 142.464 119.518 130.991 130.991C119.518 142.464 94.6466 137.33 68.5714 120.24C42.4963 137.33 17.6246 142.464 6.15158 130.991C-5.32147 119.518 -0.186678 94.6466 16.9026 68.5714C-0.186678 42.4963 -5.32147 17.6246 6.15158 6.15158ZM96.9733 40.1696C101.867 45.1439 106.36 50.1985 110.532 55.2531C121.604 38.1638 125.616 23.4815 119.598 17.5444C113.661 11.5271 98.979 15.5386 81.8898 26.6105C86.9444 30.7826 91.9989 35.2755 96.9733 40.1696ZM40.1696 96.9733C35.2755 91.9989 30.7826 86.9444 26.6105 81.8898C15.5386 98.979 11.5271 113.661 17.5444 119.598C23.4815 125.616 38.1638 121.604 55.2531 110.532C50.1985 106.36 45.1439 101.867 40.1696 96.9733ZM17.5444 17.5444C11.5271 23.4815 15.5386 38.1638 26.6105 55.2531C30.7826 50.1985 35.2755 45.1439 40.1696 40.1696C45.1439 35.2755 50.1985 30.7826 55.2531 26.6105C38.1638 15.5386 23.4815 11.5271 17.5444 17.5444ZM51.5624 85.5804C57.1786 91.1966 62.9552 96.3314 68.5714 100.905C74.1876 96.3314 79.9643 91.1966 85.5804 85.5804C91.1966 79.9643 96.3314 74.1876 100.905 68.5714C96.3314 62.9552 91.1966 57.1786 85.5804 51.5624C79.9643 45.9462 74.1876 40.8114 68.5714 36.2383C62.9552 40.8114 57.1786 45.9462 51.5624 51.5624C45.9462 57.1786 40.8114 62.9552 36.2383 68.5714C40.8114 74.1876 45.9462 79.9643 51.5624 85.5804ZM119.598 119.598C125.616 113.661 121.604 98.979 110.532 81.8898C106.36 86.9444 101.867 91.9989 96.9733 96.9733C91.9989 101.867 86.9444 106.36 81.8898 110.532C98.979 121.604 113.661 125.616 119.598 119.598Z" fill="black"/>
</svg>
