<svg width="96" height="96" viewBox="0 0 96 96" fill="none" xmlns="http://www.w3.org/2000/svg">
<path d="M48 42.3838C49.4895 42.3838 50.918 42.9755 51.9712 44.0288C53.0245 45.082 53.6162 46.5105 53.6162 48C53.6162 49.4895 53.0245 50.918 51.9712 51.9712C50.918 53.0245 49.4895 53.6162 48 53.6162C46.5105 53.6162 45.082 53.0245 44.0288 51.9712C42.9755 50.918 42.3838 49.4895 42.3838 48C42.3838 46.5105 42.9755 45.082 44.0288 44.0288C45.082 42.9755 46.5105 42.3838 48 42.3838ZM4.30611 4.30611C12.3372 -3.72503 29.7474 -0.130675 48 11.8318C66.2526 -0.130675 83.6627 -3.72503 91.6939 4.30611C99.725 12.3372 96.1307 29.7474 84.1682 48C96.1307 66.2526 99.725 83.6627 91.6939 91.6939C83.6627 99.725 66.2526 96.1307 48 84.1682C29.7474 96.1307 12.3372 99.725 4.30611 91.6939C-3.72503 83.6627 -0.130675 66.2526 11.8318 48C-0.130675 29.7474 -3.72503 12.3372 4.30611 4.30611ZM67.8813 28.1187C71.3071 31.6007 74.4522 35.1389 77.3726 38.6771C85.123 26.7147 87.931 16.4371 83.7189 12.2811C79.5629 8.06895 69.2853 10.877 57.3229 18.6274C60.8611 21.5478 64.3992 24.6928 67.8813 28.1187ZM28.1187 67.8813C24.6928 64.3992 21.5478 60.8611 18.6274 57.3229C10.877 69.2853 8.06895 79.5629 12.2811 83.7189C16.4371 87.931 26.7147 85.123 38.6771 77.3726C35.1389 74.4522 31.6007 71.3071 28.1187 67.8813ZM12.2811 12.2811C8.06895 16.4371 10.877 26.7147 18.6274 38.6771C21.5478 35.1389 24.6928 31.6007 28.1187 28.1187C31.6007 24.6928 35.1389 21.5478 38.6771 18.6274C26.7147 10.877 16.4371 8.06895 12.2811 12.2811ZM36.0937 59.9063C40.025 63.8376 44.0687 67.432 48 70.6332C51.9313 67.432 55.975 63.8376 59.9063 59.9063C63.8376 55.975 67.432 51.9313 70.6332 48C67.432 44.0687 63.8376 40.025 59.9063 36.0937C55.975 32.1624 51.9313 28.568 48 25.3668C44.0687 28.568 40.025 32.1624 36.0937 36.0937C32.1624 40.025 28.568 44.0687 25.3668 48C28.568 51.9313 32.1624 55.975 36.0937 59.9063ZM83.7189 83.7189C87.931 79.5629 85.123 69.2853 77.3726 57.3229C74.4522 60.8611 71.3071 64.3992 67.8813 67.8813C64.3992 71.3071 60.8611 74.4522 57.3229 77.3726C69.2853 85.123 79.5629 87.931 83.7189 83.7189Z" fill="white"/>
</svg>
