<svg width="43" height="32" viewBox="0 0 43 32" fill="none" xmlns="http://www.w3.org/2000/svg">
<path d="M18.8125 32C18.8125 32 16.125 32 16.125 29.3333C16.125 26.6667 18.8125 18.6667 29.5625 18.6667C40.3125 18.6667 43 26.6667 43 29.3333C43 32 40.3125 32 40.3125 32H18.8125ZM29.5625 16C31.7008 16 33.7515 15.1571 35.2635 13.6569C36.7756 12.1566 37.625 10.1217 37.625 8C37.625 5.87827 36.7756 3.84344 35.2635 2.34315C33.7515 0.842855 31.7008 0 29.5625 0C27.4242 0 25.3735 0.842855 23.8615 2.34315C22.3494 3.84344 21.5 5.87827 21.5 8C21.5 10.1217 22.3494 12.1566 23.8615 13.6569C25.3735 15.1571 27.4242 16 29.5625 16ZM14.018 32C13.6198 31.1674 13.4211 30.2548 13.4375 29.3333C13.4375 25.72 15.265 22 18.6405 19.4133C16.9559 18.8972 15.2004 18.6452 13.4375 18.6667C2.6875 18.6667 0 26.6667 0 29.3333C0 32 2.6875 32 2.6875 32H14.018ZM12.0938 16C13.8757 16 15.5846 15.2976 16.8446 14.0474C18.1046 12.7971 18.8125 11.1014 18.8125 9.33333C18.8125 7.56522 18.1046 5.86953 16.8446 4.61929C15.5846 3.36905 13.8757 2.66667 12.0938 2.66667C10.3118 2.66667 8.60289 3.36905 7.34288 4.61929C6.08287 5.86953 5.375 7.56522 5.375 9.33333C5.375 11.1014 6.08287 12.7971 7.34288 14.0474C8.60289 15.2976 10.3118 16 12.0938 16Z" fill="#00B081"/>
</svg>
