<svg width="42" height="32" viewBox="0 0 42 32" fill="none" xmlns="http://www.w3.org/2000/svg">
<path d="M32.6161 18.5071V13.4929H42V18.5071H32.6161ZM36.2147 32L28.6985 26.3476L31.7505 22.3362L39.2213 27.943L36.2147 32ZM31.7505 9.66382L28.6985 5.65242L36.2147 0L39.2213 4.05698L31.7505 9.66382ZM5.46638 30.3134V23.0199H5.01085C3.55314 22.8376 2.35358 22.1994 1.41215 21.1054C0.470716 20.0114 0 18.735 0 17.2764V14.7236C0 13.1434 0.561822 11.7911 1.68547 10.6667C2.80911 9.54226 4.16052 8.98006 5.7397 8.98006H12.026L23.0954 2.32479V29.6752L12.026 23.0199H11.4794V30.3134H5.46638ZM24.9176 23.6581V8.34188C26.1931 9.19278 27.2028 10.2944 27.9469 11.6467C28.6909 12.9991 29.0629 14.4501 29.0629 16C29.0629 17.5499 28.6909 19.001 27.9469 20.3533C27.2028 21.7056 26.1931 22.8072 24.9176 23.6581Z" fill="#1F63A0"/>
</svg>
