<svg width="32" height="32" viewBox="0 0 32 32" fill="none" xmlns="http://www.w3.org/2000/svg">
<path d="M12.5595 13.5789C10.6669 13.5789 9.04656 12.9125 7.69845 11.5796C6.35033 10.2468 5.67627 8.64444 5.67627 6.77263C5.67627 4.90082 6.3501 3.30409 7.69774 1.98246C9.04538 0.660819 10.6655 0 12.558 0C14.4506 0 16.071 0.663041 17.4191 1.98912C18.7672 3.31544 19.4412 4.90971 19.4412 6.77193C19.4412 8.64398 18.7674 10.2464 17.4198 11.5793C16.0721 12.9124 14.452 13.5789 12.5595 13.5789ZM28.8426 32L24.6918 27.8947C24.2188 28.152 23.7136 28.3509 23.1762 28.4912C22.6389 28.6316 22.0679 28.7018 21.4634 28.7018C19.463 28.7018 17.7626 28.0092 16.3622 26.6242C14.9618 25.2392 14.2616 23.5574 14.2616 21.5789C14.2616 19.6005 14.9618 17.9187 16.3622 16.5337C17.7626 15.1487 19.463 14.4561 21.4634 14.4561C23.4638 14.4561 25.1642 15.1487 26.5646 16.5337C27.965 17.9187 28.6652 19.6005 28.6652 21.5789C28.6652 22.1768 28.5942 22.7415 28.4523 23.273C28.3104 23.8044 28.1094 24.3041 27.8492 24.7719L32 28.8772L28.8426 32ZM21.4549 24.2807C22.2174 24.2807 22.8647 24.0203 23.3969 23.4996C23.929 22.9789 24.1951 22.3415 24.1951 21.5874C24.1951 20.8332 23.9319 20.193 23.4054 19.6667C22.8789 19.1403 22.2344 18.8772 21.4719 18.8772C20.7094 18.8772 20.0621 19.1375 19.5299 19.6582C18.9978 20.1789 18.7317 20.8164 18.7317 21.5705C18.7317 22.3247 18.9949 22.9649 19.5214 23.4912C20.0479 24.0175 20.6924 24.2807 21.4549 24.2807ZM13.9423 15.0526C12.3577 16.7134 11.5181 18.6959 11.4235 21C11.3289 23.3041 11.9084 25.3684 13.1619 27.193H0V22.0351C0 21.0236 0.266075 20.0865 0.798226 19.2239C1.33038 18.3612 2.04582 17.7076 2.94457 17.2632C4.17443 16.6316 5.72949 16.0643 7.60976 15.5614C9.49002 15.0585 11.6009 14.8889 13.9423 15.0526Z" fill="#1F63A0"/>
</svg>
