<svg width="63" height="63" viewBox="0 0 63 63" fill="none" xmlns="http://www.w3.org/2000/svg">
<g filter="url(#filter0_d_104_1247)">
<circle cx="31.5" cy="27.5" r="27" fill="white" stroke="black"/>
<path d="M43.6016 32.3242C44.9182 32.6053 46.0456 33.0428 46.8867 33.5791C47.977 34.2743 48.4998 35.0679 48.5 35.8271V37.5H44.3955V35.4658C44.3955 34.3207 44.1075 33.2411 43.6016 32.3242ZM31.5 30.5342C34.0465 30.5342 36.3272 31.1273 37.9541 32.0596C39.5949 32.9999 40.4795 34.2231 40.4795 35.4658V37.5H22.5205V35.4658C22.5205 34.2231 23.4051 32.9999 25.0459 32.0596C26.6728 31.1273 28.9535 30.5342 31.5 30.5342ZM19.3975 32.3242C18.8917 33.241 18.6045 34.3209 18.6045 35.4658V37.5H14.5V35.8271C14.5002 35.0679 15.023 34.2743 16.1133 33.5791C16.9542 33.043 18.0813 32.6053 19.3975 32.3242ZM21.292 21.1211C21.9083 21.1211 22.4837 21.2605 22.998 21.5137C22.87 23.4851 23.444 25.4226 24.5732 26.9971C23.8885 28.0837 22.6794 28.8104 21.292 28.8105C20.2632 28.8105 19.2772 28.404 18.5508 27.6826C17.8245 26.9614 17.4171 25.9843 17.417 24.9658C17.417 23.9472 17.8245 22.9694 18.5508 22.248C19.2772 21.5267 20.2633 21.1211 21.292 21.1211ZM41.708 21.1211C42.7367 21.1211 43.7228 21.5267 44.4492 22.248C45.1755 22.9694 45.583 23.9472 45.583 24.9658C45.5829 25.9843 45.1755 26.9614 44.4492 27.6826C43.7228 28.404 42.7368 28.8105 41.708 28.8105C40.3204 28.8104 39.1105 28.084 38.4258 26.9971C39.5553 25.4225 40.1291 23.4853 40.001 21.5137C40.5155 21.2603 41.0914 21.1211 41.708 21.1211ZM31.5 17.5C32.7222 17.5 33.8936 17.9826 34.7568 18.8398C35.6198 19.6969 36.1045 20.8588 36.1045 22.0693C36.1044 23.2798 35.6198 24.4418 34.7568 25.2988C33.8937 26.1559 32.7221 26.6377 31.5 26.6377C30.2779 26.6377 29.1063 26.1559 28.2432 25.2988C27.3802 24.4418 26.8956 23.2798 26.8955 22.0693C26.8955 20.8588 27.3802 19.6969 28.2432 18.8398C29.1064 17.9826 30.2778 17.5 31.5 17.5Z" fill="#00B081" stroke="black"/>
</g>
<defs>
<filter id="filter0_d_104_1247" x="0" y="0" width="63" height="63" filterUnits="userSpaceOnUse" color-interpolation-filters="sRGB">
<feFlood flood-opacity="0" result="BackgroundImageFix"/>
<feColorMatrix in="SourceAlpha" type="matrix" values="0 0 0 0 0 0 0 0 0 0 0 0 0 0 0 0 0 0 127 0" result="hardAlpha"/>
<feOffset dy="4"/>
<feGaussianBlur stdDeviation="2"/>
<feComposite in2="hardAlpha" operator="out"/>
<feColorMatrix type="matrix" values="0 0 0 0 0 0 0 0 0 0 0 0 0 0 0 0 0 0 0.25 0"/>
<feBlend mode="normal" in2="BackgroundImageFix" result="effect1_dropShadow_104_1247"/>
<feBlend mode="normal" in="SourceGraphic" in2="effect1_dropShadow_104_1247" result="shape"/>
</filter>
</defs>
</svg>
