<svg width="64" height="65" viewBox="0 0 64 65" fill="none" xmlns="http://www.w3.org/2000/svg">
<g filter="url(#filter0_d_104_1244)">
<circle cx="31.8" cy="27.5" r="27" fill="white" stroke="black"/>
<path d="M26.678 38.2188C26.903 38.3528 27.1353 38.4693 27.3723 38.5703L21.7727 44.1709H20.7405L26.678 38.2188ZM24.634 36.4189L16.8665 44.1709H15.1292V42.4336L22.8821 34.6797L24.634 36.4189ZM33.9387 43.7568L31.762 38.6426C33.803 37.852 35.7421 36.8691 37.5754 35.75L33.9387 43.7568ZM20.7258 31.9297C20.8274 32.1679 20.9459 32.3981 21.0803 32.6221L15.1292 38.5596V37.5273L20.7258 31.9297ZM43.1536 10.5605C44.7848 10.4118 46.1157 10.5608 47.0334 10.7441C47.4922 10.8358 47.8477 10.9356 48.0852 11.0117C48.1423 11.03 48.1923 11.0484 48.2356 11.0635C48.2507 11.107 48.2698 11.1571 48.2883 11.2148C48.3644 11.4523 48.4653 11.8078 48.5569 12.2666C48.7401 13.1843 48.8884 14.5152 48.7395 16.1465C48.4427 19.3988 46.9607 23.8892 42.135 28.7148C38.3969 32.4528 34.3351 34.7399 30.6809 36.1406C29.5626 36.558 28.3501 36.2894 27.5374 35.4619L27.5334 35.458L23.8411 31.7822C23.0226 30.9459 22.7436 29.7293 23.1584 28.6182C24.6148 25.0063 26.8533 20.8969 30.5852 17.165C35.4107 12.3388 39.9012 10.8572 43.1536 10.5605ZM23.5481 21.7246C22.4293 23.5575 21.4469 25.4967 20.6565 27.5371L15.5413 25.3604L23.5481 21.7246ZM41.4807 17.5312C39.9246 16.1259 37.515 16.1728 36.0159 17.6719C34.4684 19.2193 34.4684 21.7377 36.0159 23.2852C37.5634 24.8323 40.0818 24.8325 41.6292 23.2852C43.1795 21.7348 43.1554 19.2179 41.6311 17.6738L41.6292 17.6719L41.4807 17.5312Z" fill="#00B081" stroke="black"/>
</g>
<defs>
<filter id="filter0_d_104_1244" x="4.86374e-05" y="0" width="63.6" height="64.3" filterUnits="userSpaceOnUse" color-interpolation-filters="sRGB">
<feFlood flood-opacity="0" result="BackgroundImageFix"/>
<feColorMatrix in="SourceAlpha" type="matrix" values="0 0 0 0 0 0 0 0 0 0 0 0 0 0 0 0 0 0 127 0" result="hardAlpha"/>
<feOffset dy="5"/>
<feGaussianBlur stdDeviation="2.15"/>
<feComposite in2="hardAlpha" operator="out"/>
<feColorMatrix type="matrix" values="0 0 0 0 0 0 0 0 0 0 0 0 0 0 0 0 0 0 0.25 0"/>
<feBlend mode="normal" in2="BackgroundImageFix" result="effect1_dropShadow_104_1244"/>
<feBlend mode="normal" in="SourceGraphic" in2="effect1_dropShadow_104_1244" result="shape"/>
</filter>
</defs>
</svg>
