<svg id="visual" viewBox="0 0 900 600" width="900" height="600" xmlns="http://www.w3.org/2000/svg" xmlns:xlink="http://www.w3.org/1999/xlink" version="1.1"><rect x="0" y="0" width="900" height="600" fill="#001220"></rect><path d="M0 377L21.5 377.8C43 378.7 86 380.3 128.8 386.3C171.7 392.3 214.3 402.7 257.2 410C300 417.3 343 421.7 385.8 417.3C428.7 413 471.3 400 514.2 394.2C557 388.3 600 389.7 642.8 392.8C685.7 396 728.3 401 771.2 407C814 413 857 420 878.5 423.5L900 427L900 601L878.5 601C857 601 814 601 771.2 601C728.3 601 685.7 601 642.8 601C600 601 557 601 514.2 601C471.3 601 428.7 601 385.8 601C343 601 300 601 257.2 601C214.3 601 171.7 601 128.8 601C86 601 43 601 21.5 601L0 601Z" fill="#002233"></path><path d="M0 398L21.5 408C43 418 86 438 128.8 439.7C171.7 441.3 214.3 424.7 257.2 426.5C300 428.3 343 448.7 385.8 449.7C428.7 450.7 471.3 432.3 514.2 427C557 421.7 600 429.3 642.8 430.7C685.7 432 728.3 427 771.2 432C814 437 857 452 878.5 459.5L900 467L900 601L878.5 601C857 601 814 601 771.2 601C728.3 601 685.7 601 642.8 601C600 601 557 601 514.2 601C471.3 601 428.7 601 385.8 601C343 601 300 601 257.2 601C214.3 601 171.7 601 128.8 601C86 601 43 601 21.5 601L0 601Z" fill="#00324c"></path><path d="M0 443L21.5 447.7C43 452.3 86 461.7 128.8 460.2C171.7 458.7 214.3 446.3 257.2 447C300 447.7 343 461.3 385.8 470C428.7 478.7 471.3 482.3 514.2 483.2C557 484 600 482 642.8 476.2C685.7 470.3 728.3 460.7 771.2 464C814 467.3 857 483.7 878.5 491.8L900 500L900 601L878.5 601C857 601 814 601 771.2 601C728.3 601 685.7 601 642.8 601C600 601 557 601 514.2 601C471.3 601 428.7 601 385.8 601C343 601 300 601 257.2 601C214.3 601 171.7 601 128.8 601C86 601 43 601 21.5 601L0 601Z" fill="#004267"></path><path d="M0 517L21.5 520.5C43 524 86 531 128.8 525.2C171.7 519.3 214.3 500.7 257.2 494.5C300 488.3 343 494.7 385.8 501C428.7 507.3 471.3 513.7 514.2 513.5C557 513.3 600 506.7 642.8 507.3C685.7 508 728.3 516 771.2 514.8C814 513.7 857 503.3 878.5 498.2L900 493L900 601L878.5 601C857 601 814 601 771.2 601C728.3 601 685.7 601 642.8 601C600 601 557 601 514.2 601C471.3 601 428.7 601 385.8 601C343 601 300 601 257.2 601C214.3 601 171.7 601 128.8 601C86 601 43 601 21.5 601L0 601Z" fill="#0b5283"></path><path d="M0 544L21.5 547.7C43 551.3 86 558.7 128.8 560.7C171.7 562.7 214.3 559.3 257.2 555.7C300 552 343 548 385.8 549C428.7 550 471.3 556 514.2 553.3C557 550.7 600 539.3 642.8 536C685.7 532.7 728.3 537.3 771.2 539.3C814 541.3 857 540.7 878.5 540.3L900 540L900 601L878.5 601C857 601 814 601 771.2 601C728.3 601 685.7 601 642.8 601C600 601 557 601 514.2 601C471.3 601 428.7 601 385.8 601C343 601 300 601 257.2 601C214.3 601 171.7 601 128.8 601C86 601 43 601 21.5 601L0 601Z" fill="#1f63a0"></path></svg>