<svg width="106" height="106" viewBox="0 0 106 106" fill="none" xmlns="http://www.w3.org/2000/svg">
<path d="M52.6544 0C45.7397 0 38.8928 1.36195 32.5044 4.00808C26.1161 6.65421 20.3115 10.5327 15.4221 15.4221C5.5475 25.2967 0 38.6896 0 52.6544C0 66.6192 5.5475 80.0121 15.4221 89.8867C20.3115 94.7761 26.1161 98.6546 32.5044 101.301C38.8928 103.947 45.7397 105.309 52.6544 105.309C66.6192 105.309 80.0121 99.7613 89.8867 89.8867C99.7613 80.0121 105.309 66.6192 105.309 52.6544C105.309 46.5465 104.203 40.4912 102.097 34.8046L93.6722 43.2293C94.4093 46.3359 94.7779 49.4951 94.7779 52.6544C94.7779 63.8262 90.3399 74.5405 82.4402 82.4402C74.5405 90.3399 63.8262 94.7779 52.6544 94.7779C41.4825 94.7779 30.7683 90.3399 22.8686 82.4402C14.9689 74.5405 10.5309 63.8262 10.5309 52.6544C10.5309 41.4825 14.9689 30.7683 22.8686 22.8686C30.7683 14.9689 41.4825 10.5309 52.6544 10.5309C55.8137 10.5309 58.9729 10.8995 62.0795 11.6366L70.5569 3.15926C64.8176 1.10574 58.7623 0 52.6544 0ZM89.5125 0L68.4507 21.0618V28.9599L55.0238 42.3868C54.234 42.1235 53.4442 42.1235 52.6544 42.1235C49.8614 42.1235 47.1829 43.233 45.2079 45.2079C43.233 47.1829 42.1235 49.8614 42.1235 52.6544C42.1235 55.4474 43.233 58.1259 45.2079 60.1008C47.1829 62.0758 49.8614 63.1853 52.6544 63.1853C55.4474 63.1853 58.1259 62.0758 60.1008 60.1008C62.0758 58.1259 63.1853 55.4474 63.1853 52.6544C63.1853 51.8646 63.1853 51.0748 62.922 50.2849L76.3489 36.8581H84.247L105.309 15.7963H89.5125V0ZM52.6544 21.0618C44.2755 21.0618 36.2398 24.3903 30.315 30.315C24.3903 36.2398 21.0618 44.2755 21.0618 52.6544C21.0618 61.0333 24.3903 69.069 30.315 74.9938C36.2398 80.9185 44.2755 84.247 52.6544 84.247C61.0333 84.247 69.069 80.9185 74.9938 74.9938C80.9185 69.069 84.247 61.0333 84.247 52.6544H73.7162C73.7162 58.2403 71.4972 63.5975 67.5473 67.5473C63.5975 71.4972 58.2403 73.7162 52.6544 73.7162C47.0685 73.7162 41.7113 71.4972 37.7615 67.5473C33.8116 63.5975 31.5926 58.2403 31.5926 52.6544C31.5926 47.0685 33.8116 41.7113 37.7615 37.7615C41.7113 33.8116 47.0685 31.5926 52.6544 31.5926V21.0618Z" fill="#FFF9F9"/>
</svg>
