<svg width="63" height="63" viewBox="0 0 63 63" fill="none" xmlns="http://www.w3.org/2000/svg">
<g filter="url(#filter0_d_104_1251)">
<circle cx="31.5" cy="27.5" r="27" fill="white" stroke="black"/>
<mask id="path-2-inside-1_104_1251" fill="white">
<path d="M19.5263 34.8684L14 40.2842V24.7368H19.5263M28.7368 31.4789L25.8447 29.0105L23.2105 31.4421V17.3684H28.7368M37.9474 28.4211L32.4211 33.9474V10H37.9474M43.1237 28.0711L39.7895 24.7368H49V33.9474L45.7026 30.65L32.4211 43.8211L26.0289 38.2579L19.0658 45H14L25.9184 33.3211L32.4211 38.8105"/>
</mask>
<path d="M19.5263 34.8684L14 40.2842V24.7368H19.5263M28.7368 31.4789L25.8447 29.0105L23.2105 31.4421V17.3684H28.7368M37.9474 28.4211L32.4211 33.9474V10H37.9474M43.1237 28.0711L39.7895 24.7368H49V33.9474L45.7026 30.65L32.4211 43.8211L26.0289 38.2579L19.0658 45H14L25.9184 33.3211L32.4211 38.8105" fill="#00B081"/>
<path d="M14 40.2842H13V42.6644L14.6999 40.9984L14 40.2842ZM14 24.7368V23.7368H13V24.7368H14ZM25.8447 29.0105L26.4939 28.2499L25.8187 27.6736L25.1665 28.2757L25.8447 29.0105ZM23.2105 31.4421H22.2105V33.7261L23.8888 32.1769L23.2105 31.4421ZM23.2105 17.3684V16.3684H22.2105V17.3684H23.2105ZM32.4211 33.9474H31.4211V36.3616L33.1282 34.6545L32.4211 33.9474ZM32.4211 10V9H31.4211V10H32.4211ZM39.7895 24.7368V23.7368H37.3753L39.0824 25.4439L39.7895 24.7368ZM49 24.7368H50V23.7368H49V24.7368ZM49 33.9474L48.2929 34.6545L50 36.3616V33.9474H49ZM45.7026 30.65L46.4097 29.9429L45.7056 29.2387L44.9985 29.9399L45.7026 30.65ZM32.4211 43.8211L31.7646 44.5754L32.4654 45.1854L33.1252 44.5311L32.4211 43.8211ZM26.0289 38.2579L26.6854 37.5036L25.9929 36.9008L25.3333 37.5395L26.0289 38.2579ZM19.0658 45V46H19.4706L19.7614 45.7184L19.0658 45ZM14 45L13.3001 44.2858L11.5507 46H14V45ZM25.9184 33.3211L26.5635 32.5569L25.8683 31.9701L25.2185 32.6068L25.9184 33.3211ZM19.5263 34.8684L18.8264 34.1542L13.3001 39.57L14 40.2842L14.6999 40.9984L20.2262 35.5826L19.5263 34.8684ZM14 40.2842H15V24.7368H14H13V40.2842H14ZM14 24.7368V25.7368H19.5263V24.7368V23.7368H14V24.7368ZM28.7368 31.4789L29.386 30.7183L26.4939 28.2499L25.8447 29.0105L25.1955 29.7711L28.0876 32.2396L28.7368 31.4789ZM25.8447 29.0105L25.1665 28.2757L22.5322 30.7073L23.2105 31.4421L23.8888 32.1769L26.523 29.7453L25.8447 29.0105ZM23.2105 31.4421H24.2105V17.3684H23.2105H22.2105V31.4421H23.2105ZM23.2105 17.3684V18.3684H28.7368V17.3684V16.3684H23.2105V17.3684ZM37.9474 28.4211L37.2403 27.7139L31.7139 33.2403L32.4211 33.9474L33.1282 34.6545L38.6545 29.1282L37.9474 28.4211ZM32.4211 33.9474H33.4211V10H32.4211H31.4211V33.9474H32.4211ZM32.4211 10V11H37.9474V10V9H32.4211V10ZM43.1237 28.0711L43.8308 27.3639L40.4966 24.0297L39.7895 24.7368L39.0824 25.4439L42.4166 28.7782L43.1237 28.0711ZM39.7895 24.7368V25.7368H49V24.7368V23.7368H39.7895V24.7368ZM49 24.7368H48V33.9474H49H50V24.7368H49ZM49 33.9474L49.7071 33.2403L46.4097 29.9429L45.7026 30.65L44.9955 31.3571L48.2929 34.6545L49 33.9474ZM45.7026 30.65L44.9985 29.9399L31.7169 43.111L32.4211 43.8211L33.1252 44.5311L46.4068 31.3601L45.7026 30.65ZM32.4211 43.8211L33.0776 43.0667L26.6854 37.5036L26.0289 38.2579L25.3724 39.0122L31.7646 44.5754L32.4211 43.8211ZM26.0289 38.2579L25.3333 37.5395L18.3702 44.2816L19.0658 45L19.7614 45.7184L26.7246 38.9763L26.0289 38.2579ZM19.0658 45V44H14V45V46H19.0658V45ZM14 45L14.6999 45.7142L26.6183 34.0353L25.9184 33.3211L25.2185 32.6068L13.3001 44.2858L14 45ZM25.9184 33.3211L25.2734 34.0852L31.776 39.5746L32.4211 38.8105L33.0661 38.0464L26.5635 32.5569L25.9184 33.3211Z" fill="black" mask="url(#path-2-inside-1_104_1251)"/>
</g>
<defs>
<filter id="filter0_d_104_1251" x="0" y="0" width="63" height="63" filterUnits="userSpaceOnUse" color-interpolation-filters="sRGB">
<feFlood flood-opacity="0" result="BackgroundImageFix"/>
<feColorMatrix in="SourceAlpha" type="matrix" values="0 0 0 0 0 0 0 0 0 0 0 0 0 0 0 0 0 0 127 0" result="hardAlpha"/>
<feOffset dy="4"/>
<feGaussianBlur stdDeviation="2"/>
<feComposite in2="hardAlpha" operator="out"/>
<feColorMatrix type="matrix" values="0 0 0 0 0 0 0 0 0 0 0 0 0 0 0 0 0 0 0.25 0"/>
<feBlend mode="normal" in2="BackgroundImageFix" result="effect1_dropShadow_104_1251"/>
<feBlend mode="normal" in="SourceGraphic" in2="effect1_dropShadow_104_1251" result="shape"/>
</filter>
</defs>
</svg>
