<svg width="105" height="105" viewBox="0 0 105 105" fill="none" xmlns="http://www.w3.org/2000/svg">
<path d="M47.0203 19.6834H63.4594L81.4877 1.6192C81.9971 1.10613 82.6032 0.698896 83.2709 0.420988C83.9387 0.143081 84.6549 0 85.3783 0C86.1017 0 86.8179 0.143081 87.4856 0.420988C88.1534 0.698896 88.7595 1.10613 89.2689 1.6192L103.407 15.7969C104.427 16.8225 105 18.2099 105 19.656C105 21.1022 104.427 22.4896 103.407 23.5152L90.858 36.1054H47.0203V47.0534C47.0203 48.5052 46.443 49.8975 45.4153 50.9241C44.3877 51.9506 42.9939 52.5274 41.5406 52.5274C40.0873 52.5274 38.6935 51.9506 37.6658 50.9241C36.6382 49.8975 36.0609 48.5052 36.0609 47.0534V30.6314C36.0609 27.7278 37.2155 24.9431 39.2708 22.89C41.3261 20.8368 44.1137 19.6834 47.0203 19.6834ZM14.142 47.0534V68.9494L1.59346 81.4848C0.572859 82.5104 0 83.8978 0 85.344C0 86.7901 0.572859 88.1775 1.59346 89.2031L15.7311 103.381C16.2405 103.894 16.8466 104.301 17.5143 104.579C18.1821 104.857 18.8983 105 19.6217 105C20.3451 105 21.0613 104.857 21.7291 104.579C22.3968 104.301 23.0029 103.894 23.5123 103.381L47.0203 79.8974H68.9391C70.3924 79.8974 71.7862 79.3206 72.8139 78.2941C73.8415 77.2675 74.4189 75.8752 74.4189 74.4234V68.9494H79.8986C81.3519 68.9494 82.7457 68.3726 83.7733 67.3461C84.801 66.3195 85.3783 64.9272 85.3783 63.4754V58.0014H90.858C92.3113 58.0014 93.7051 57.4246 94.7327 56.3981C95.7604 55.3715 96.3377 53.9792 96.3377 52.5274V47.0534H57.9797V52.5274C57.9797 55.431 56.8251 58.2156 54.7698 60.2688C52.7145 62.3219 49.9269 63.4754 47.0203 63.4754H36.0609C33.1542 63.4754 30.3667 62.3219 28.3114 60.2688C26.2561 58.2156 25.1014 55.431 25.1014 52.5274V36.1054L14.142 47.0534Z" fill="#FFF9F9"/>
</svg>
