<svg width="105" height="71" viewBox="0 0 105 71" fill="none" xmlns="http://www.w3.org/2000/svg">
<path d="M52.5 21.3C56.2974 21.3 59.9393 22.7961 62.6245 25.4591C65.3097 28.1221 66.8182 31.7339 66.8182 35.5C66.8182 39.2661 65.3097 42.8779 62.6245 45.5409C59.9393 48.2039 56.2974 49.7 52.5 49.7C48.7026 49.7 45.0607 48.2039 42.3755 45.5409C39.6903 42.8779 38.1818 39.2661 38.1818 35.5C38.1818 31.7339 39.6903 28.1221 42.3755 25.4591C45.0607 22.7961 48.7026 21.3 52.5 21.3ZM52.5 0C76.3636 0 96.7432 14.7207 105 35.5C96.7432 56.2793 76.3636 71 52.5 71C28.6364 71 8.25682 56.2793 0 35.5C8.25682 14.7207 28.6364 0 52.5 0ZM10.4045 35.5C18.2795 51.404 34.5545 61.5333 52.5 61.5333C70.4454 61.5333 86.7205 51.404 94.5955 35.5C86.7205 19.596 70.4454 9.46667 52.5 9.46667C34.5545 9.46667 18.2795 19.596 10.4045 35.5Z" fill="#FFF9F9"/>
</svg>
